<?xml version="1.0" encoding="iso-8859-1"?>
<!-- Generator: Adobe Illustrator 19.1.0, SVG Export Plug-In . SVG Version: 6.00 Build 0)  -->
<svg version="1.1" id="Capa_1" xmlns="http://www.w3.org/2000/svg" xmlns:xlink="http://www.w3.org/1999/xlink" x="0px" y="0px"
	 viewBox="0 0 64 64" style="enable-background:new 0 0 64 64;" xml:space="preserve">
<g>
	<g id="group-37svg">
		<path id="path-1_81_" style="fill:#FF917B;" d="M61,56c0,4.418-3.582,8-8,8H18c-4.419,0-8-3.582-8-8V12c0-4.419,3.581-8,8-8h35
			c4.418,0,8,3.581,8,8V56z"/>
		<path id="path-2_81_" d="M47.5,63h-35C7.262,63,3,58.738,3,53.5v-44C3,4.262,7.262,0,12.5,0h35C52.738,0,57,4.262,57,9.5v44
			C57,58.738,52.738,63,47.5,63z M12.5,3C8.916,3,6,5.916,6,9.5v44c0,3.584,2.916,6.5,6.5,6.5h35c3.584,0,6.5-2.916,6.5-6.5v-44
			C54,5.916,51.084,3,47.5,3H12.5z"/>
		<path id="path-3_80_" d="M49,14H13c-0.829,0-1.5-0.672-1.5-1.5S12.171,11,13,11h36c0.829,0,1.5,0.672,1.5,1.5S49.829,14,49,14z"/>
		<path id="path-4_78_" d="M49,22H13c-0.829,0-1.5-0.672-1.5-1.5S12.171,19,13,19h36c0.829,0,1.5,0.672,1.5,1.5S49.829,22,49,22z"/>
		<path id="path-5_69_" d="M38.939,38.307c-0.44,0-0.877-0.194-1.172-0.564l-6.763-8.468l-6.763,8.468
			c-0.516,0.646-1.46,0.753-2.108,0.235c-0.647-0.516-0.753-1.46-0.236-2.108l7.935-9.934c0.569-0.713,1.774-0.713,2.344,0
			l7.934,9.934c0.517,0.648,0.412,1.592-0.236,2.108C39.598,38.199,39.267,38.307,38.939,38.307z"/>
		<path id="path-6_62_" d="M30.5,49.5c-0.829,0-1.5-0.672-1.5-1.5V27c0-0.828,0.671-1.5,1.5-1.5S32,26.172,32,27v21
			C32,48.828,31.329,49.5,30.5,49.5z"/>
	</g>
</g>
<g>
</g>
<g>
</g>
<g>
</g>
<g>
</g>
<g>
</g>
<g>
</g>
<g>
</g>
<g>
</g>
<g>
</g>
<g>
</g>
<g>
</g>
<g>
</g>
<g>
</g>
<g>
</g>
<g>
</g>
</svg>
