<?xml version="1.0" encoding="utf-8"?>
<!-- Generator: Adobe Illustrator 17.1.0, SVG Export Plug-In . SVG Version: 6.00 Build 0)  -->
<!DOCTYPE svg PUBLIC "-//W3C//DTD SVG 1.1//EN" "http://www.w3.org/Graphics/SVG/1.1/DTD/svg11.dtd">
<svg version="1.1" id="female-male" xmlns="http://www.w3.org/2000/svg" xmlns:xlink="http://www.w3.org/1999/xlink" x="0px"
	 y="0px" viewBox="0 0 1009.9998 973.0561" enable-background="new 0 0 1009.9998 973.0561" xml:space="preserve">
<g id="female-male-female-male">
	<g>
		<path fill="#323B5A" d="M226.0073,197.519c54.5445,0,98.7881-44.2246,98.7881-98.769c0-54.5445-44.2436-98.75-98.7881-98.75
			c-54.5439,0-98.7876,44.2055-98.7876,98.75C127.2197,153.2944,171.4634,197.519,226.0073,197.519z"/>
		<path fill="#323B5A" d="M283.5547,214.0722H155.3091C69.5771,214.0722,0,283.5927,0,369.3432V576.479l0,0
			c0,0.0947,0,0.1699,0,0.2275c0,22.7686,18.4727,41.165,41.2407,41.165c22.73,0,41.1651-18.3964,41.1651-41.165
			c0-0.3603-0.0381-0.7031-0.0762-1.0635V361.7412h18.5869v258.3159h0.019v300.8496c0.0191,28.8301,23.3951,52.1494,52.169,52.1494
			c28.8872,0,52.2827-23.3574,52.2827-52.1885c0-1.1396-0.0952-2.2617-0.1714-3.4012V620.0571h30.1992v300.8496
			c0.0948,28.8301,23.357,52.1494,52.2256,52.1494c28.8306,0,52.2071-23.3574,52.2071-52.1885c0-1.1396-0.1143-2.2617-0.1905-3.4012
			V620.0571h0.0381V361.7412h16.8003V576.479c0,0.0947,0,0.1699,0,0.2275c0,22.7686,18.3589,41.165,41.165,41.165
			c22.73,0,41.1651-18.3964,41.1651-41.165c0-0.0576,0-0.1328,0-0.2275V369.3432
			C438.8257,283.5927,369.3623,214.0722,283.5547,214.0722z"/>
	</g>
	<g>
		<path fill="#323B5A" d="M1005.668,508.1743c-6.4991-25.2578-34.6641-108.8032-62.7159-192.1021
			c-27.9755-83.3559-73.9296-94.8921-152.5722-94.8921h-78.9092c-78.6426,0-124.5586,11.5362-152.5723,94.8921
			c-28.0507,83.2989-56.1782,166.8443-62.6967,192.1021c-7.583,29.3633-7.564,54.2402,19.7841,62.4883
			c28.0513,8.4765,48.8814-9.2549,60.2837-42.3614c0.1143-0.3613,50.4776-160.8208,50.4776-160.8208h21.0576L541.377,718.5024
			h106.4277v202.8408c0.0371,28.583,15.6601,51.7129,42.0762,51.7129c26.4179,0,46.1074-23.167,46.1074-51.751
			c0-1.1406-0.1153-2.2236-0.1524-3.287l0.1133-199.5156h29.9522l0.1523,199.5156c-0.0762,1.0635-0.1523,2.1465-0.1523,3.287
			c0,28.584,19.6513,51.751,46.1064,51.751c26.417,0,42.0391-23.1299,42.0762-51.7129V718.5024h106.4287L854.084,367.4804h21.0586
			c0,0,50.2871,160.4595,50.4394,160.8208c11.4405,33.1065,32.2325,50.8379,60.2832,42.3614
			C1013.2324,562.4145,1013.2705,537.5376,1005.668,508.1743z"/>
		<g>
			<path fill="#323B5A" d="M747.9609,200.8066c55.4942,0,100.461-44.9658,100.461-100.4224C848.4219,44.9277,803.4551,0,747.9609,0
				C692.542,0,647.5391,44.9277,647.5391,100.3842C647.5391,155.8408,692.542,200.8066,747.9609,200.8066z"/>
		</g>
	</g>
</g>
</svg>
